
<svg xmlns="http://www.w3.org/2000/svg" version="1.1" id="svg27" xml:space="preserve" width="241.8" height="57.5" viewBox="0 0 241.8 57.5"><defs id="defs31"><clipPath clipPathUnits="userSpaceOnUse" id="clipPath43"><path d="M 0,595.28 H 419.53 V 0 H 0 Z" id="path41"></path></clipPath></defs><g id="g35" transform="matrix(1.3333333,0,0,-1.3333333,0,793.70667)"><g id="g37" transform="translate(-116.1143,279.03912)"><g id="g39" clip-path="url(#clipPath43)"><path d="m 232.139,294.746 h -2.911 v 9.99 h 2.911 z m -2.888,-4.933 v 2.21 h -11.433 v 1.487 h 14.321 v -5.114 h -11.451 v -1.688 c 0,-0.34 0.14,-0.502 0.511,-0.502 h 11.246 v -1.467 h -12.816 c -1.176,0 -1.788,0.712 -1.788,1.798 v 3.276 z m -7.117,11.636 c 0.614,-2.725 2.717,-4.691 4.795,-5.684 l -0.973,-1.153 c -1.477,0.467 -3.939,1.859 -5.482,4.1 -1.527,-2.199 -3.95,-3.746 -5.513,-4.211 l -0.949,1.152 c 2.126,1.014 4.18,3.022 4.761,5.796 h -4.166 v 1.469 h 4.315 v 2.368 h 3.048 v -2.368 h 4.383 v -1.469 z" style="fill:#e60013;fill-opacity:1;fill-rule:nonzero;stroke:none" id="path45"></path><g id="g47" transform="translate(253.1367,304.7358)"><path d="m 0,0 v -11.499 h -2.906 v 6.173 h -4.023 v 1.481 h 4.023 V 0 Z m -8.981,-16.121 c 0,-1.587 0.883,-3.005 2.579,-3.005 1.758,0 2.599,1.418 2.599,3.005 0,1.589 -0.892,3.009 -2.599,3.009 -1.696,0 -2.579,-1.467 -2.579,-3.009 m 8.091,0 c 0,-2.716 -2.386,-4.51 -5.512,-4.51 -3.135,0 -5.506,1.794 -5.506,4.51 0,2.686 2.395,4.496 5.506,4.496 3.126,0 5.512,-1.81 5.512,-4.496 m -9.157,13.804 c 0,-3.516 2.214,-5.728 4.936,-7.124 l -0.976,-1.169 c -1.48,0.469 -3.934,1.722 -5.484,3.964 -1.533,-2.242 -3.987,-3.72 -5.512,-4.187 l -0.957,1.158 c 2.482,1.165 4.874,3.774 4.874,7.301 v 1.818 h 3.119 z" style="fill:#e60013;fill-opacity:1;fill-rule:nonzero;stroke:none" id="path49"></path></g><g id="g51" transform="translate(263.0049,300.7617)"><path d="M 0,0 C 0,-1.583 1.224,-2.94 3.1,-2.94 4.979,-2.94 6.201,-1.583 6.201,0 6.201,1.62 4.955,2.949 3.1,2.949 1.237,2.949 0,1.62 0,0 m -1.398,-14.054 c 0,-0.34 0.139,-0.502 0.509,-0.502 h 8.351 v 3.952 h -8.86 z M 9.036,0 c 0,-3.05 -3.104,-4.401 -5.936,-4.401 -2.834,0 -5.933,1.372 -5.933,4.401 0,3.081 3.078,4.422 5.933,4.422 2.854,0 5.936,-1.341 5.936,-4.422 m 1.235,-9.138 v -6.884 H -2.453 c -1.171,0 -1.796,0.711 -1.796,1.797 v 5.087 z m 2.655,1.731 H -6.569 v 1.475 h 19.495 z" style="fill:#e60013;fill-opacity:1;fill-rule:nonzero;stroke:none" id="path53"></path></g><path d="m 285.688,288.803 h 3.982 v 3.478 h -3.982 z m 6.886,3.477 v -3.477 h 4.803 v -1.49 h -19.454 v 1.49 h 4.874 v 3.477 h -1.113 c -0.8,0 -1.482,0.607 -1.482,1.455 v 4.639 h 11.732 v 3.078 h -11.732 v 1.466 h 14.545 v -6.03 h -11.672 v -2.518 c 0,-0.433 0.156,-0.598 0.552,-0.598 H 295 v -1.492 z" style="fill:#e60013;fill-opacity:1;fill-rule:nonzero;stroke:none" id="path55"></path><g id="g57" transform="translate(202.6519,297.4941)"><path d="M 0,0 H -3.74 V -1.774 H 0 v -4.217 c -0.734,-0.287 -1.39,-0.445 -2.358,-0.445 h -4.256 c -0.39,0 -0.721,0.326 -0.721,0.716 v 9.969 h 5.468 v 1.439 h -8.564 v -12.13 c 0,-0.798 0.646,-1.436 1.429,-1.436 h 6.644 c 1.015,0 1.832,0.179 2.358,0.506 v -5.415 H 2.985 V 7.219 H 0 Z m 4.788,-12.787 h 2.99 V 7.219 h -2.99 z" style="fill:#e60013;fill-opacity:1;fill-rule:nonzero;stroke:none" id="path59"></path></g><g id="g61" transform="translate(180.3247,291.7813)"><path d="m 0,0 h -3.462 c -0.917,-3.803 -5.431,-5.71 -7.083,-5.949 l 0.867,-1.278 c 1.69,0.202 5.546,1.586 7.955,4.221 2.403,-2.635 6.249,-4.019 7.941,-4.221 l 0.866,1.278 C 5.426,-5.71 0.918,-3.803 0,0 M -0.085,2.373 V 4.345 H 6.503 V 5.774 H -5.9 c -0.401,0 -0.728,0.317 -0.728,0.724 v 1.25 H 6.229 v 4.84 H -9.714 V 11.161 H 3.134 V 9.196 H -9.714 V 5.774 c 0,-0.797 0.646,-1.429 1.434,-1.429 h 5.097 V 2.373 h -8.199 V 0.93 H 8.167 v 1.443 z" style="fill:#e60013;fill-opacity:1;fill-rule:nonzero;stroke:none" id="path63"></path></g><g id="g65" transform="translate(146.5083,276.8379)"><path d="m 0,0 c -4.875,-4.875 -12.854,-4.875 -17.73,0 l -9.006,9.012 c -4.877,4.87 -4.877,12.851 -0.002,17.726 l 9.008,9.008 c 4.876,4.876 12.855,4.876 17.73,0 l 9.005,-9.008 c 4.877,-4.875 4.877,-12.856 0,-17.726 z" style="fill:#e60013;fill-opacity:1;fill-rule:nonzero;stroke:none" id="path67"></path></g><g id="g69" transform="translate(132.2988,281.4785)"><path d="m 0,0 c -0.716,0 -1.299,0.561 -1.328,1.278 -0.015,0.354 0.109,0.693 0.35,0.957 0.242,0.259 0.57,0.415 0.925,0.43 C 0.68,2.698 1.302,2.127 1.336,1.387 1.366,0.655 0.792,0.03 0.055,0.004 0.039,0 0.019,0 0,0" style="fill:#ffffff;fill-opacity:1;fill-rule:nonzero;stroke:none" id="path71"></path></g><g id="g73" transform="translate(137.147,306.0664)"><path d="m 0,0 c -0.731,0 -1.316,-0.228 -1.79,-0.699 -1.022,-1.015 -1.556,-3.109 -1.51,-5.898 0.059,-3.439 0.875,-10.183 3.581,-13.661 0.438,-0.563 0.909,-1.012 1.4,-1.338 0.479,-0.312 1.011,-0.621 1.846,-0.621 0.23,0 0.471,0.025 0.725,0.069 1.552,0.376 3.492,2.099 4.936,4.397 0.223,0.348 0.601,0.558 1.013,0.558 0.225,0 0.445,-0.065 0.636,-0.182 0.269,-0.172 0.456,-0.436 0.53,-0.748 0.07,-0.313 0.016,-0.633 -0.154,-0.902 -1.827,-2.904 -4.241,-4.943 -6.453,-5.456 -0.008,-0.004 -0.03,-0.008 -0.057,-0.01 -0.405,-0.076 -0.805,-0.115 -1.186,-0.115 -1.425,0 -2.435,0.543 -3.151,1.014 -0.709,0.469 -1.372,1.094 -1.969,1.868 -3.807,4.886 -4.067,14.054 -4.084,15.084 -0.041,2.442 0.309,5.746 2.216,7.637 0.928,0.924 2.096,1.39 3.461,1.39 h 0.221 c 1.373,0 2.541,-0.466 3.468,-1.39 1.907,-1.891 2.258,-5.195 2.215,-7.637 -0.041,-2.541 -0.505,-7.464 -3.142,-11.881 -0.215,-0.356 -0.611,-0.578 -1.028,-0.578 -0.215,0 -0.425,0.06 -0.612,0.166 -0.566,0.342 -0.747,1.072 -0.413,1.641 1.845,3.086 2.737,6.485 2.805,10.695 0.049,2.789 -0.487,4.883 -1.511,5.898 C 1.523,-0.228 0.937,0 0.209,0 Z" style="fill:#ffffff;fill-opacity:1;fill-rule:nonzero;stroke:none" id="path75"></path></g></g></g></g></svg>